<svg xmlns="http://www.w3.org/2000/svg" width="250" height="250" viewBox="0 0 24 24"><path fill="#0096ad" d="M8 22q-.825 0-1.413-.588T6 20v-4.3q0-1.85.525-3.562t1.65-3.413Q7.225 8.5 6.612 7.7T6 5.9V4.85q0-1.2 1.038-2.012T9.2 2.15l8.9.875q.425.05.663.338t.237.662V7q0 .375-.263.663T18.1 8l-.9.1q.35 1.225.925 2.2t1.375 1.4l-1 1.75q-1.325-.775-2.05-2.137T15.3 8.274l-1.1.1q.2 1.25.763 2.525t1.137 2.3q.45.8.675 1.675T17 16.65V20q0 .825-.587 1.413T15 22H8ZM8 5.1v.8q0 .45.325.725t.775.225L17 6.1V4.9l-7.9-.75q-.45-.05-.775.225T8 5.1ZM8 20h7v-3.35q0-.65-.163-1.275t-.487-1.2q-.775-1.35-1.35-2.788t-.8-2.812l-1.5.125l-.65.85q-1 1.325-1.525 2.913T8 15.7V20Zm0 0h7h-7Z"/></svg>